<?xml version="1.0" standalone="no"?>
<!DOCTYPE svg PUBLIC "-//W3C//DTD SVG 20010904//EN"
 "http://www.w3.org/TR/2001/REC-SVG-20010904/DTD/svg10.dtd">
<svg version="1.0" xmlns="http://www.w3.org/2000/svg"
 width="795.000000pt" height="795.000000pt" viewBox="0 0 795.000000 795.000000"
 preserveAspectRatio="xMidYMid meet">
<metadata>
Created by potrace 1.14, written by Peter Selinger 2001-2017
</metadata>
<g transform="translate(0.000000,795.000000) scale(0.100000,-0.100000)"
fill="#000000" stroke="none">
<path d="M3837 7943 c-1 -1 -47 -4 -102 -8 -183 -11 -245 -18 -263 -29 -6 -3
-14 -2 -17 4 -5 8 -11 7 -21 -1 -11 -9 -14 -8 -14 2 0 11 -2 11 -8 2 -6 -10
-50 -19 -119 -25 -7 -1 -13 -4 -13 -7 0 -4 -12 -6 -27 -5 -16 0 -43 -3 -62 -8
-18 -5 -42 -12 -52 -14 -11 -2 -29 -6 -41 -10 -13 -3 -32 -7 -43 -9 -30 -5
-54 -11 -120 -30 -33 -9 -71 -19 -85 -22 -14 -3 -31 -10 -38 -16 -7 -5 -15 -7
-19 -3 -3 3 -17 -1 -30 -9 -13 -9 -28 -13 -33 -10 -6 3 -10 1 -10 -4 0 -6 -3
-10 -7 -9 -5 1 -35 -6 -68 -17 -33 -10 -63 -18 -67 -17 -5 1 -8 -3 -8 -8 0 -6
-9 -10 -20 -10 -11 0 -20 -5 -20 -10 0 -6 -6 -10 -12 -9 -7 1 -26 -3 -41 -9
-101 -42 -134 -57 -146 -66 -7 -6 -19 -11 -25 -11 -11 -1 -107 -46 -116 -55
-3 -3 -31 -18 -62 -33 -32 -16 -60 -33 -64 -38 -3 -5 -10 -7 -15 -4 -5 4 -9 1
-9 -5 0 -6 -4 -9 -9 -5 -6 3 -13 0 -18 -7 -4 -7 -29 -24 -55 -37 -27 -13 -48
-28 -48 -33 0 -5 -4 -7 -9 -4 -4 3 -19 -3 -31 -14 -12 -11 -31 -22 -41 -25
-11 -4 -19 -11 -19 -16 0 -6 -5 -7 -10 -4 -5 3 -10 2 -10 -4 0 -6 -11 -13 -25
-17 -14 -3 -23 -10 -20 -14 3 -5 -3 -11 -14 -15 -10 -3 -28 -13 -39 -23 -11
-9 -33 -26 -48 -37 -69 -49 -220 -168 -230 -181 -6 -8 -16 -14 -23 -14 -6 0
-11 -7 -11 -15 0 -8 -3 -14 -8 -13 -8 3 -69 -49 -116 -99 -17 -18 -37 -33 -44
-33 -7 0 -10 -4 -7 -10 3 -5 1 -10 -5 -10 -6 0 -8 -4 -5 -10 3 -5 0 -10 -7
-10 -13 0 -118 -109 -118 -123 0 -5 -4 -5 -10 -2 -5 3 -10 2 -10 -3 0 -5 -15
-25 -33 -44 -66 -72 -97 -110 -97 -121 0 -6 -3 -8 -6 -4 -4 3 -18 -11 -31 -31
-14 -20 -32 -41 -39 -45 -8 -4 -14 -14 -14 -22 0 -7 -4 -15 -8 -17 -5 -1 -26
-28 -48 -58 -21 -30 -41 -57 -44 -60 -9 -9 -104 -155 -105 -161 0 -3 -8 -13
-18 -23 -9 -10 -17 -23 -17 -31 0 -7 -3 -15 -7 -17 -5 -1 -19 -23 -32 -48 -14
-25 -27 -47 -30 -50 -4 -3 -15 -23 -26 -45 -11 -22 -24 -43 -30 -47 -5 -4 -6
-8 -1 -8 5 0 1 -9 -9 -20 -10 -11 -15 -20 -11 -20 4 0 -1 -12 -12 -27 -10 -16
-22 -37 -27 -48 -5 -11 -9 -22 -10 -25 -2 -3 -6 -15 -10 -27 -4 -13 -12 -23
-17 -23 -5 0 -7 -4 -4 -9 3 -4 -1 -17 -9 -27 -8 -10 -15 -27 -15 -36 0 -10 -4
-18 -10 -18 -5 0 -9 -3 -8 -7 0 -5 -2 -17 -6 -28 -22 -58 -48 -122 -57 -140
-6 -12 -11 -27 -13 -35 -2 -8 -8 -28 -14 -43 -7 -16 -12 -33 -12 -38 0 -5 -4
-17 -10 -27 -10 -17 -56 -170 -63 -207 -2 -11 -7 -28 -11 -37 -4 -9 -5 -22 -1
-28 3 -5 2 -10 -3 -10 -5 0 -13 -19 -17 -42 -5 -24 -9 -45 -10 -48 -2 -6 -24
-107 -30 -140 -12 -59 -23 -123 -30 -180 -4 -25 -8 -56 -10 -70 -2 -14 -7 -54
-10 -89 -3 -36 -8 -68 -11 -73 -3 -4 0 -8 6 -8 6 0 8 -5 3 -12 -12 -20 -14
-59 -15 -283 -1 -225 4 -344 16 -363 4 -7 2 -12 -4 -12 -6 0 -8 -4 -5 -10 3
-5 8 -36 11 -67 3 -32 7 -69 10 -83 3 -14 7 -43 10 -65 2 -22 8 -62 14 -90 5
-27 11 -65 12 -82 1 -18 5 -33 8 -33 3 0 7 -12 8 -27 6 -60 7 -68 18 -80 6 -6
10 -25 9 -42 -1 -17 2 -31 8 -31 5 0 7 -7 3 -15 -3 -8 -1 -15 4 -15 5 0 7 -7
4 -15 -4 -8 -1 -15 6 -15 6 0 9 -4 6 -9 -7 -10 7 -57 67 -241 23 -69 46 -128
52 -132 5 -4 7 -8 2 -8 -4 0 2 -18 13 -40 11 -22 18 -40 15 -40 -3 0 8 -27 25
-60 17 -33 27 -60 24 -60 -4 0 0 -8 9 -17 8 -10 16 -22 16 -28 2 -22 13 -45
22 -45 5 0 8 -3 7 -7 -3 -15 14 -63 23 -63 5 0 9 -7 9 -15 0 -8 5 -15 11 -15
5 0 8 -4 4 -9 -3 -5 0 -15 7 -23 7 -7 14 -20 16 -28 2 -8 10 -22 18 -31 8 -9
11 -19 7 -22 -3 -4 -2 -7 4 -7 6 0 13 -8 16 -17 3 -10 20 -40 37 -68 16 -27
33 -58 36 -67 4 -10 10 -18 15 -18 5 0 9 -7 9 -15 0 -8 5 -15 10 -15 6 0 10
-6 10 -13 0 -7 8 -22 18 -33 10 -10 24 -33 32 -51 8 -17 17 -30 21 -28 3 3 11
-7 17 -20 7 -14 16 -25 22 -25 6 0 9 -4 6 -9 -3 -4 2 -18 12 -29 9 -12 28 -38
42 -58 14 -20 35 -45 48 -57 12 -11 22 -26 22 -33 0 -6 7 -15 16 -18 8 -3 13
-10 9 -15 -3 -5 4 -12 15 -16 11 -3 20 -9 20 -13 0 -23 341 -382 362 -382 5 0
7 -3 5 -7 -5 -8 25 -41 31 -34 2 2 26 -18 53 -43 27 -25 53 -46 59 -46 5 0 10
-4 10 -8 0 -5 18 -21 41 -38 22 -16 47 -35 55 -42 8 -8 54 -42 102 -77 48 -35
92 -69 99 -75 7 -5 17 -10 23 -10 5 0 10 -4 10 -10 0 -5 7 -10 15 -10 8 0 15
-4 15 -8 0 -5 16 -14 35 -22 19 -8 35 -17 35 -22 0 -4 7 -8 15 -8 8 0 15 -4
15 -10 0 -5 6 -10 13 -10 8 0 22 -9 32 -20 10 -11 25 -20 33 -20 7 0 26 -8 40
-19 37 -26 226 -121 240 -121 7 0 12 -4 12 -10 0 -5 4 -10 10 -10 5 0 35 -12
67 -26 134 -60 191 -83 204 -80 3 0 13 -5 22 -12 8 -7 28 -15 43 -18 16 -3 33
-9 39 -13 11 -8 95 -33 108 -31 4 0 21 -7 37 -15 17 -9 30 -13 30 -10 0 3 10
0 23 -7 12 -6 31 -12 42 -13 11 0 25 -3 30 -6 6 -4 35 -12 65 -20 30 -7 58
-18 62 -24 5 -6 8 -6 8 2 0 9 7 10 23 4 13 -5 37 -12 53 -15 16 -3 40 -7 54
-10 14 -3 37 -7 53 -10 15 -3 35 -7 45 -10 9 -3 35 -7 56 -11 22 -3 42 -8 44
-10 3 -3 11 0 19 6 7 7 13 7 13 2 0 -9 42 -15 92 -14 10 0 20 -5 24 -10 4 -6
11 -6 20 2 8 6 14 8 14 3 0 -13 77 -17 385 -18 274 0 368 4 381 16 3 4 17 3
30 -2 13 -5 24 -6 24 -2 0 5 10 8 23 8 33 1 173 20 217 29 14 3 39 7 55 10 17
3 62 12 100 21 39 8 77 17 85 19 8 2 15 4 15 5 0 1 14 3 30 4 17 1 45 10 63
18 19 10 32 12 32 6 0 -7 4 -7 13 1 8 6 22 12 33 14 10 2 26 7 34 10 8 3 56
18 105 33 50 15 96 31 103 37 6 5 12 7 12 3 0 -4 14 0 30 9 17 9 30 12 30 8 0
-4 5 -2 12 5 7 7 20 12 30 12 10 0 18 4 18 8 0 5 6 9 13 9 6 0 39 13 72 28 33
16 63 27 68 27 4 -1 7 3 7 10 0 6 3 8 6 5 4 -3 16 -1 28 5 11 7 25 11 29 10 4
-1 10 5 13 13 3 8 10 13 14 10 4 -3 27 6 51 20 24 14 51 27 59 31 8 3 22 10
30 15 8 5 27 14 43 20 15 6 27 15 27 19 0 4 12 13 28 19 34 13 86 44 90 54 2
4 10 7 18 7 8 0 14 5 14 10 0 6 3 9 8 8 4 -1 33 14 65 35 31 20 59 37 62 37 5
0 37 25 60 47 8 7 17 13 22 13 5 0 22 11 38 25 61 51 108 85 117 85 5 0 7 4 4
8 -3 5 7 15 22 23 14 8 33 21 42 29 39 37 94 80 102 80 5 0 6 5 3 10 -3 6 -2
10 3 10 4 0 32 22 60 49 29 27 52 47 52 44 0 -3 14 11 30 32 17 21 30 34 30
29 0 -5 8 3 18 19 10 15 22 24 25 20 4 -3 7 -1 7 4 0 6 20 32 45 57 25 26 45
51 45 56 0 6 7 10 17 10 9 0 14 3 10 6 -3 3 4 16 16 28 20 18 104 118 132 154
6 7 22 26 37 42 14 16 23 31 20 34 -3 3 0 6 6 6 7 0 12 6 12 14 0 8 3 16 8 18
4 2 23 26 41 53 19 28 37 52 40 55 8 7 30 42 38 60 4 8 10 17 13 20 4 3 22 30
41 60 18 30 38 58 43 62 6 4 8 8 4 8 -4 0 6 22 22 49 17 26 30 51 30 55 0 4 7
14 15 23 8 8 13 18 10 23 -3 4 2 11 11 14 8 3 12 10 9 16 -3 5 -1 10 4 10 6 0
10 3 9 7 -2 11 24 65 39 81 7 7 13 19 13 26 0 7 11 34 24 59 14 25 26 54 28
64 2 10 6 20 9 23 9 6 80 181 81 198 1 6 6 12 11 12 6 0 8 3 4 6 -3 4 0 23 8
43 7 20 16 45 21 56 4 11 8 25 10 30 1 6 9 29 18 53 8 23 16 46 16 50 2 15 12
58 17 72 7 18 10 29 17 55 2 11 9 40 15 65 7 25 14 56 17 70 3 14 9 40 14 59
5 19 7 38 4 42 -2 4 0 10 5 14 6 3 9 21 7 40 -1 19 2 35 7 35 5 0 7 9 4 20 -3
11 -1 23 5 26 5 3 8 15 5 25 -3 11 -2 19 1 19 4 0 8 15 8 33 3 62 10 112 18
126 7 10 5 12 -3 6 -10 -6 -11 -3 -3 11 5 11 9 30 8 44 -1 14 3 28 9 32 6 5 5
8 -3 8 -7 0 -10 5 -7 10 4 6 8 38 10 73 2 34 5 64 6 67 1 3 0 10 -1 15 -3 12
-1 84 5 143 2 29 0 40 -7 36 -7 -4 -8 -2 -4 5 8 12 9 86 2 191 -2 36 -5 90 -7
120 -1 30 -4 59 -7 64 -3 6 -7 30 -8 55 -2 25 -5 62 -8 81 -2 19 -8 58 -11 85
-4 28 -9 53 -11 56 -2 4 -6 31 -10 60 -4 30 -11 65 -15 77 -5 13 -7 27 -4 32
3 5 1 11 -5 15 -6 4 -8 11 -5 16 4 5 2 9 -2 9 -5 0 -9 10 -10 23 -1 24 -5 40
-24 107 -7 25 -14 52 -15 60 -6 36 -70 229 -78 237 -3 4 -6 17 -6 30 0 12 -4
23 -10 23 -5 0 -9 3 -8 8 1 4 -8 32 -19 64 -21 53 -29 72 -82 190 -11 26 -22
53 -23 60 -2 7 -5 15 -8 18 -13 13 -70 130 -63 130 4 0 3 4 -2 8 -13 8 -105
170 -105 183 0 5 -4 9 -10 9 -5 0 -10 7 -10 15 0 8 -5 15 -12 15 -6 0 -9 3 -5
6 3 4 1 12 -6 20 -30 33 -35 42 -30 48 4 3 1 6 -5 6 -7 0 -12 7 -12 15 0 7 -6
18 -13 22 -7 4 -21 25 -32 46 -11 20 -23 37 -28 37 -4 0 -6 4 -3 8 3 5 -4 15
-15 22 -10 8 -19 18 -19 23 0 5 -11 23 -25 41 -26 32 -45 56 -80 102 -11 14
-28 34 -37 42 -10 9 -18 20 -18 24 0 4 -18 25 -40 47 -22 22 -40 43 -40 47 0
4 -22 29 -50 55 -27 26 -50 51 -50 54 0 12 -28 34 -34 28 -3 -4 -6 -2 -6 4 0
15 -47 63 -54 56 -3 -4 -6 0 -6 7 0 11 -44 60 -54 60 -2 0 -23 19 -48 43 -48
45 -104 94 -163 142 -52 42 -78 63 -91 74 -6 4 -35 26 -65 47 -30 21 -59 43
-66 49 -7 5 -19 16 -27 23 -8 6 -20 12 -25 12 -6 0 -14 6 -18 13 -9 14 -59 45
-85 54 -10 3 -18 10 -18 15 0 5 -4 6 -10 3 -5 -3 -10 -2 -10 3 0 5 -16 17 -35
26 -19 9 -35 22 -35 28 0 6 -3 9 -6 5 -3 -3 -38 13 -77 37 -40 23 -87 48 -104
55 -18 7 -33 18 -33 24 0 6 -3 8 -6 4 -3 -3 -39 12 -79 33 -40 21 -76 36 -79
33 -3 -4 -6 -1 -6 6 0 7 -4 10 -9 6 -5 -3 -16 1 -24 9 -8 8 -17 12 -21 9 -3
-4 -6 -1 -6 5 0 7 -3 11 -7 10 -5 -1 -42 11 -83 27 -41 16 -78 28 -82 27 -5
-1 -8 2 -8 6 0 4 -21 13 -47 21 -27 7 -57 16 -68 21 -51 20 -161 53 -180 53
-8 0 -15 4 -15 8 0 3 -12 9 -27 12 -16 3 -48 11 -73 17 -25 6 -58 13 -75 16
-16 3 -37 10 -46 15 -10 5 -21 3 -29 -4 -10 -9 -11 -9 -6 1 5 8 0 12 -16 13
-38 1 -82 10 -88 17 -3 4 -16 7 -30 6 -14 0 -29 2 -35 5 -5 3 -23 6 -39 7 -16
2 -48 6 -70 9 -56 9 -112 15 -171 20 -27 2 -81 7 -120 10 -61 6 -394 13 -398
8z"/>
</g>
</svg>
